<mxfile host="app.diagrams.net" agent="Mozilla/5.0 (Windows NT 10.0; Win64; x64) AppleWebKit/537.36 (KHTML, like Gecko) Chrome/138.0.0.0 Safari/537.36 Edg/138.0.0.0" version="28.0.7">
  <diagram name="第 1 页" id="U2XxXBqe15VkJv6iZQpm">
    <mxGraphModel dx="567" dy="302" grid="1" gridSize="10" guides="1" tooltips="1" connect="1" arrows="1" fold="1" page="1" pageScale="1" pageWidth="850" pageHeight="1100" math="0" shadow="0">
      <root>
        <mxCell id="0" />
        <mxCell id="1" parent="0" />
        <mxCell id="MpBsIY-9IQLQIlKfzswG-14" style="edgeStyle=orthogonalEdgeStyle;rounded=0;orthogonalLoop=1;jettySize=auto;html=1;entryX=0.5;entryY=1;entryDx=0;entryDy=0;" parent="1" source="MpBsIY-9IQLQIlKfzswG-2" target="MpBsIY-9IQLQIlKfzswG-10" edge="1">
          <mxGeometry relative="1" as="geometry" />
        </mxCell>
        <mxCell id="MpBsIY-9IQLQIlKfzswG-2" value="ElasticSearch" style="rounded=1;whiteSpace=wrap;html=1;" parent="1" vertex="1">
          <mxGeometry x="510" y="450" width="95" height="30" as="geometry" />
        </mxCell>
        <mxCell id="MasK0HZB-ZR_ZQPeUso5-14" style="edgeStyle=orthogonalEdgeStyle;rounded=0;orthogonalLoop=1;jettySize=auto;html=1;entryX=0;entryY=0.5;entryDx=0;entryDy=0;" edge="1" parent="1" source="MpBsIY-9IQLQIlKfzswG-5" target="MpBsIY-9IQLQIlKfzswG-11">
          <mxGeometry relative="1" as="geometry" />
        </mxCell>
        <mxCell id="MasK0HZB-ZR_ZQPeUso5-17" style="edgeStyle=orthogonalEdgeStyle;rounded=0;orthogonalLoop=1;jettySize=auto;html=1;entryX=0.5;entryY=0;entryDx=0;entryDy=0;" edge="1" parent="1" source="MpBsIY-9IQLQIlKfzswG-5" target="MpBsIY-9IQLQIlKfzswG-23">
          <mxGeometry relative="1" as="geometry">
            <Array as="points">
              <mxPoint x="290" y="520" />
              <mxPoint x="243" y="520" />
            </Array>
          </mxGeometry>
        </mxCell>
        <mxCell id="MasK0HZB-ZR_ZQPeUso5-18" style="edgeStyle=orthogonalEdgeStyle;rounded=0;orthogonalLoop=1;jettySize=auto;html=1;entryX=0.5;entryY=0;entryDx=0;entryDy=0;" edge="1" parent="1" source="MpBsIY-9IQLQIlKfzswG-5" target="MpBsIY-9IQLQIlKfzswG-21">
          <mxGeometry relative="1" as="geometry">
            <Array as="points">
              <mxPoint x="290" y="520" />
              <mxPoint x="343" y="520" />
            </Array>
          </mxGeometry>
        </mxCell>
        <mxCell id="MpBsIY-9IQLQIlKfzswG-5" value="" style="swimlane;startSize=0;" parent="1" vertex="1">
          <mxGeometry x="210" y="420" width="160" height="90" as="geometry" />
        </mxCell>
        <mxCell id="MpBsIY-9IQLQIlKfzswG-6" value="" style="group" parent="MpBsIY-9IQLQIlKfzswG-5" vertex="1" connectable="0">
          <mxGeometry x="10" y="20" width="60" height="62" as="geometry" />
        </mxCell>
        <mxCell id="MpBsIY-9IQLQIlKfzswG-1" value="" style="points=[];aspect=fixed;html=1;align=center;shadow=0;dashed=0;fillColor=#FF6A00;strokeColor=none;shape=mxgraph.alibaba_cloud.kafka;" parent="MpBsIY-9IQLQIlKfzswG-6" vertex="1">
          <mxGeometry x="1.6499999999999986" width="56.699999999999996" height="42" as="geometry" />
        </mxCell>
        <mxCell id="MpBsIY-9IQLQIlKfzswG-4" value="Broker 1" style="text;html=1;align=center;verticalAlign=middle;whiteSpace=wrap;rounded=0;" parent="MpBsIY-9IQLQIlKfzswG-6" vertex="1">
          <mxGeometry y="42" width="60" height="20" as="geometry" />
        </mxCell>
        <mxCell id="MpBsIY-9IQLQIlKfzswG-7" value="" style="group" parent="MpBsIY-9IQLQIlKfzswG-5" vertex="1" connectable="0">
          <mxGeometry x="80" y="20" width="60" height="62" as="geometry" />
        </mxCell>
        <mxCell id="MpBsIY-9IQLQIlKfzswG-8" value="" style="points=[];aspect=fixed;html=1;align=center;shadow=0;dashed=0;fillColor=#FF6A00;strokeColor=none;shape=mxgraph.alibaba_cloud.kafka;" parent="MpBsIY-9IQLQIlKfzswG-7" vertex="1">
          <mxGeometry x="1.6499999999999986" width="56.699999999999996" height="42" as="geometry" />
        </mxCell>
        <mxCell id="MpBsIY-9IQLQIlKfzswG-9" value="Controller" style="text;html=1;align=center;verticalAlign=middle;whiteSpace=wrap;rounded=0;" parent="MpBsIY-9IQLQIlKfzswG-7" vertex="1">
          <mxGeometry y="42" width="60" height="20" as="geometry" />
        </mxCell>
        <mxCell id="MpBsIY-9IQLQIlKfzswG-10" value="Kibana" style="rounded=1;whiteSpace=wrap;html=1;" parent="1" vertex="1">
          <mxGeometry x="510" y="390" width="95" height="30" as="geometry" />
        </mxCell>
        <mxCell id="MasK0HZB-ZR_ZQPeUso5-15" style="edgeStyle=orthogonalEdgeStyle;rounded=0;orthogonalLoop=1;jettySize=auto;html=1;entryX=0;entryY=0.5;entryDx=0;entryDy=0;" edge="1" parent="1" source="MpBsIY-9IQLQIlKfzswG-11" target="MpBsIY-9IQLQIlKfzswG-2">
          <mxGeometry relative="1" as="geometry" />
        </mxCell>
        <mxCell id="MpBsIY-9IQLQIlKfzswG-11" value="Logstash" style="rounded=1;whiteSpace=wrap;html=1;" parent="1" vertex="1">
          <mxGeometry x="390" y="450" width="95" height="30" as="geometry" />
        </mxCell>
        <mxCell id="MasK0HZB-ZR_ZQPeUso5-4" style="edgeStyle=orthogonalEdgeStyle;rounded=0;orthogonalLoop=1;jettySize=auto;html=1;entryX=0;entryY=0.5;entryDx=0;entryDy=0;" edge="1" parent="1" source="MpBsIY-9IQLQIlKfzswG-15" target="MpBsIY-9IQLQIlKfzswG-5">
          <mxGeometry relative="1" as="geometry">
            <Array as="points">
              <mxPoint x="190" y="445" />
              <mxPoint x="190" y="465" />
            </Array>
          </mxGeometry>
        </mxCell>
        <mxCell id="MpBsIY-9IQLQIlKfzswG-15" value="Producer 1" style="rounded=1;whiteSpace=wrap;html=1;" parent="1" vertex="1">
          <mxGeometry x="100" y="430" width="85" height="30" as="geometry" />
        </mxCell>
        <mxCell id="MasK0HZB-ZR_ZQPeUso5-16" style="edgeStyle=orthogonalEdgeStyle;rounded=0;orthogonalLoop=1;jettySize=auto;html=1;entryX=0.5;entryY=1;entryDx=0;entryDy=0;" edge="1" parent="1" source="MpBsIY-9IQLQIlKfzswG-17" target="MpBsIY-9IQLQIlKfzswG-2">
          <mxGeometry relative="1" as="geometry" />
        </mxCell>
        <mxCell id="MpBsIY-9IQLQIlKfzswG-17" value="Others filebeats" style="rounded=1;whiteSpace=wrap;html=1;" parent="1" vertex="1">
          <mxGeometry x="510" y="530" width="95" height="30" as="geometry" />
        </mxCell>
        <mxCell id="MasK0HZB-ZR_ZQPeUso5-7" style="edgeStyle=orthogonalEdgeStyle;rounded=0;orthogonalLoop=1;jettySize=auto;html=1;entryX=0;entryY=0.5;entryDx=0;entryDy=0;" edge="1" parent="1" source="MpBsIY-9IQLQIlKfzswG-19" target="MpBsIY-9IQLQIlKfzswG-5">
          <mxGeometry relative="1" as="geometry">
            <Array as="points">
              <mxPoint x="190" y="485" />
              <mxPoint x="190" y="465" />
            </Array>
          </mxGeometry>
        </mxCell>
        <mxCell id="MpBsIY-9IQLQIlKfzswG-19" value="Producer 2" style="rounded=1;whiteSpace=wrap;html=1;" parent="1" vertex="1">
          <mxGeometry x="100" y="470" width="85" height="30" as="geometry" />
        </mxCell>
        <mxCell id="MpBsIY-9IQLQIlKfzswG-21" value="Consumer 1" style="rounded=1;whiteSpace=wrap;html=1;" parent="1" vertex="1">
          <mxGeometry x="300" y="530" width="85" height="30" as="geometry" />
        </mxCell>
        <mxCell id="MpBsIY-9IQLQIlKfzswG-23" value="Consumer 2" style="rounded=1;whiteSpace=wrap;html=1;" parent="1" vertex="1">
          <mxGeometry x="200" y="530" width="85" height="30" as="geometry" />
        </mxCell>
        <mxCell id="MasK0HZB-ZR_ZQPeUso5-2" style="edgeStyle=orthogonalEdgeStyle;rounded=0;orthogonalLoop=1;jettySize=auto;html=1;entryX=0;entryY=0.5;entryDx=0;entryDy=0;" edge="1" parent="1" source="MasK0HZB-ZR_ZQPeUso5-1" target="MpBsIY-9IQLQIlKfzswG-15">
          <mxGeometry relative="1" as="geometry">
            <Array as="points">
              <mxPoint x="90" y="465" />
              <mxPoint x="90" y="445" />
            </Array>
          </mxGeometry>
        </mxCell>
        <mxCell id="MasK0HZB-ZR_ZQPeUso5-3" style="edgeStyle=orthogonalEdgeStyle;rounded=0;orthogonalLoop=1;jettySize=auto;html=1;entryX=0;entryY=0.5;entryDx=0;entryDy=0;" edge="1" parent="1" source="MasK0HZB-ZR_ZQPeUso5-1" target="MpBsIY-9IQLQIlKfzswG-19">
          <mxGeometry relative="1" as="geometry">
            <Array as="points">
              <mxPoint x="90" y="465" />
              <mxPoint x="90" y="485" />
            </Array>
          </mxGeometry>
        </mxCell>
        <mxCell id="MasK0HZB-ZR_ZQPeUso5-1" value="Sources" style="rounded=1;whiteSpace=wrap;html=1;" vertex="1" parent="1">
          <mxGeometry x="4" y="450" width="80" height="30" as="geometry" />
        </mxCell>
      </root>
    </mxGraphModel>
  </diagram>
</mxfile>
